inDegrees=no
num_controls=7
num_derivatives=13
num_iterations=137
num_multipliers=7
num_parameters=0
num_slacks=7
num_states=26
objective=6.571280
objective_accelerations=0.667658
objective_balance=0.084324
objective_effort=0.543917
objective_height=5.203619
objective_ligament=0.071763
solver_duration=1193.718669
status=Solve_Succeeded
success=true
DataType=double
version=3
OpenSimVersion=4.4-2022-07-23-0e9fedc
endheader
time	/jointset/ground_pelvis/pelvis_tilt/value	/jointset/ground_pelvis/pelvis_tx/value	/jointset/ground_pelvis/pelvis_ty/value	/jointset/hip_r/hip_flexion_r/value	/jointset/hip_r/hip_adduction_r/value	/jointset/hip_r/hip_rotation_r/value	/jointset/back/lumbar_extension/value	/jointset/patellofemoral_r/patellar_flexion_r/value	/jointset/knee_r/knee_flexion_r/value	/jointset/knee_r/knee_adduction_r/value	/jointset/knee_r/knee_rotation_r/value	/jointset/ankle_r/ankle_angle_r/value	/jointset/subtalar_r/subtalar_angle_r/value	/jointset/ground_pelvis/pelvis_tilt/speed	/jointset/ground_pelvis/pelvis_tx/speed	/jointset/ground_pelvis/pelvis_ty/speed	/jointset/hip_r/hip_flexion_r/speed	/jointset/hip_r/hip_adduction_r/speed	/jointset/hip_r/hip_rotation_r/speed	/jointset/back/lumbar_extension/speed	/jointset/patellofemoral_r/patellar_flexion_r/speed	/jointset/knee_r/knee_flexion_r/speed	/jointset/knee_r/knee_adduction_r/speed	/jointset/knee_r/knee_rotation_r/speed	/jointset/ankle_r/ankle_angle_r/speed	/jointset/subtalar_r/subtalar_angle_r/speed	/forceset/tau_hip_flexion_r	/forceset/tau_hip_adduction_r	/forceset/tau_hip_rotation_r	/forceset/tau_knee_flexion_r	/forceset/tau_ankle_angle_r	/forceset/tau_subtalar_angle_r	/forceset/tau_lumbar_extension	lambda_cid13_p0	lambda_cid14_p0	lambda_cid14_p1	lambda_cid14_p2	lambda_cid14_p3	lambda_cid14_p4	lambda_cid14_p5	/jointset/ground_pelvis/pelvis_tilt/accel	/jointset/ground_pelvis/pelvis_tx/accel	/jointset/ground_pelvis/pelvis_ty/accel	/jointset/hip_r/hip_flexion_r/accel	/jointset/hip_r/hip_adduction_r/accel	/jointset/hip_r/hip_rotation_r/accel	/jointset/back/lumbar_extension/accel	/jointset/patellofemoral_r/patellar_flexion_r/accel	/jointset/knee_r/knee_flexion_r/accel	/jointset/knee_r/knee_adduction_r/accel	/jointset/knee_r/knee_rotation_r/accel	/jointset/ankle_r/ankle_angle_r/accel	/jointset/subtalar_r/subtalar_angle_r/accel	gamma_cid13_p0	gamma_cid14_p0	gamma_cid14_p1	gamma_cid14_p2	gamma_cid14_p3	gamma_cid14_p4	gamma_cid14_p5
1.5	-0.1977316770978882	0.03321255993565049	0.8297654546123689	0.8922092383025683	-0.2443602602790238	-0.09066426755839474	-0.2954216896339136	0.7988647889977694	0.7988647889977685	0.06677225184046459	0.1745319224412335	0.2742647400465582	0.03968293380137992	0.4691131636149249	0.1819888440519579	0.4984247832041466	-2.076556174496285	0.0329301214771445	-0.4509611949059775	0.7005846693362601	-2.137984089764451	-2.137984089764339	0.1768545534428245	-5.758162174140609e-06	-0.6253444213810656	-0.1180702212040906	-0.1243451714446005	-0.01505791384347703	0.01508272625432912	-0.3283979239748706	0.05013491498169296	-0.00787921992688901	0.1609208079781944	-25.45458132802256	-24.58848789768273	-3.977907981632491	-3.188450620676649	3.297861459867873	-649.2315931764401	56.61919334929497	0.2698160535608457	0.4236350346983254	-0.6203116991016153	-0.9927612302929046	0.1795492524765827	-0.3690543721963416	1.508800932830165	-1.381050384710695	-1.381050384710689	0.5032253627501702	-0.03603042525847715	-0.7478238535981307	0.1086304086514151	1.840690309283427e-07	1.103877983944588e-07	-1.901983090450534e-06	8.620151765910051e-07	1.420429954411146e-07	2.409150687227824e-07	-1.267980982957216e-06
1.51	-0.1930274208082694	0.03505338946827408	0.8347176280086132	0.8713962461465397	-0.244022860445123	-0.0951929486139842	-0.288341787287323	0.7774186952084974	0.7774186952085018	0.06856715684404265	0.174531915960404	0.2679745217256159	0.03850659073279371	0.471665739048012	0.1861474215726683	0.491900682497404	-2.085750211200881	0.03454896658907095	-0.4547462798228039	0.7152895977286593	-2.150925217067649	-2.150925217067586	0.1821273763595846	1.836909633722171e-06	-0.6326015618729264	-0.1171789564475497	-0.1169075512583637	-0.01680887313226493	0.014588599711308	-0.3246839082162902	0.0537821720261461	-0.009116683570974553	0.1542932490350708	-26.77748863949907	-23.21116749878987	-4.172482734794389	-3.273592179214043	2.873075905287787	-644.3501929062335	56.35606626816561	0.2371357231198639	0.4075531411570261	-0.684785873984037	-0.8389037413072982	0.1528878251389405	-0.3786485878641965	1.435408454515026	-1.204266295115339	-1.204266295122698	0.5391806346394108	0.0189078915396565	-0.6999593724347425	0.08207017892291403	1.947329034786601e-07	1.166632392689866e-07	-2.024947023952918e-06	9.038814047984695e-07	1.478410501064671e-07	2.647792604447511e-07	-1.347225925025636e-06
1.52	-0.1882998072773326	0.03693492158218503	0.8396012950742854	0.8505000778533149	-0.2436693050231876	-0.09975856312602832	-0.2811180217243937	0.7558524656678015	0.7558524656678018	0.07041476405250581	0.1745319361139192	0.261614671954664	0.03733969944572627	0.47378461187858	0.1901293603094269	0.4847235170897465	-2.093191401936045	0.03616123908452953	-0.4583478861971692	0.7293573126038582	-2.162011240050488	-2.162011240050474	0.1873949944163621	-4.312929850596513e-07	-0.639270711382977	-0.1161798649003109	-0.1094699310721048	-0.01855983242105359	0.01409447316816671	-0.3209698924577027	0.05742942907059764	-0.01035414721505897	0.1476656900919674	-28.08338099701757	-21.83865501223469	-4.362692088861558	-3.365378022705085	2.447380120923252	-639.5477571615262	56.16411584914053	0.1830755330570541	0.3883072779079276	-0.7509246392845796	-0.642192036406564	0.1782347291830372	-0.3323586637041047	1.381358229390118	-1.010029520638829	-1.010029520638817	0.5021843907536249	-0.03800308014384445	-0.630225657236176	0.1301957667909714	2.049820899656467e-07	1.227455195297902e-07	-2.144213898409963e-06	9.431986872651316e-07	1.528507817595585e-07	2.906553814860719e-07	-1.422876741976182e-06
1.53	-0.1835531229419337	0.038855332390158	0.8444100286068995	0.8295381666631794	-0.2432997218784883	-0.1043593744549322	-0.2737569860319089	0.7341846378898405	0.7341846378898454	0.07231510367913829	0.1745319888102097	0.2551910622475916	0.0361832631290243	0.4754784909598545	0.1939169865837025	0.4769223573496242	-2.0988918710677	0.03775282401650715	-0.4617799641981009	0.7427285373546137	-2.171234964150146	-2.171234964150169	0.1926741408991519	5.390243699723156e-06	-0.6453487974735843	-0.1150898793719489	-0.1020131716007242	-0.02051034681071933	0.01356259665291095	-0.3174705176790699	0.06117683987631268	-0.0116654347139924	0.1410280506081198	-29.37037598038207	-20.45721893244869	-4.584787243191227	-3.450496154161231	2.055427407137744	-635.0487060517713	55.97028085953777	0.1514895527786436	0.3686499481084007	-0.8097697206180811	-0.4891149895486076	0.1491851224073822	-0.3431698340058299	1.296811317198785	-0.8306851543821032	-0.8306851543873998	0.5406627166092151	0.01920138082700901	-0.5811829839058694	0.1007800401033345	2.147906725103442e-07	1.286225666385118e-07	-2.259552647631336e-06	9.798077148821913e-07	1.570229202121223e-07	3.18669177429204e-07	-1.494708800988984e-06
1.54	-0.1787917107242992	0.04081255139005825	0.8491377389262641	0.8085282226541282	-0.2429143099350303	-0.1089934140569888	-0.2662658767480601	0.7124341446109452	0.7124341446109382	0.07426821135854587	0.1745319650438965	0.2487097550998264	0.03503820268645477	0.4767301883257594	0.1974909986948825	0.4685188744398512	-2.102797965719496	0.03932699883657736	-0.4649935408277587	0.7553720308765804	-2.178544340239911	-2.178544340239968	0.1979486049646418	-1.572380951477582e-05	-0.650810199521508	-0.1139046900738074	-0.09455641212932862	-0.0224608612003901	0.0130307201374385	-0.3139711429004257	0.06492425068202594	-0.01297672221292878	0.134390411124286	-30.63749217386827	-19.07873631007277	-4.802208374186003	-3.542289509425882	1.656335577890111	-630.6024399498627	55.84788959722258	0.0946391899831784	0.3455844452887558	-0.8713892732147048	-0.283317140434718	0.1747527068015703	-0.2886583894493268	1.235811983632421	-0.6271599186597155	-0.6271599186597213	0.5012479072936352	-0.04339019812369206	-0.5068888486995096	0.1492365207468504	2.241263509180715e-07	1.267852322758946e-07	-2.39325105323931e-06	9.89234749092273e-07	1.700347182158537e-07	3.296910228399569e-07	-1.565874534802778e-06
